<svg id="Layer_1" data-name="Layer 1" xmlns="http://www.w3.org/2000/svg" viewBox="0 0 1920 1280"><defs><style>.cls-1{fill:#b9b3f2;}.cls-2,.cls-3{fill:none;stroke-linecap:round;stroke-linejoin:round;stroke-width:32.45px;}.cls-2{stroke:#bbb5f4;}.cls-3{stroke:#42164c;}</style></defs><path class="cls-1" d="M297.73,958.58C297.73,878,359.08,815,437.35,815c41.68,0,68.82,13.76,81.8,24.38v45.23c-11-11-35.79-27.53-76.3-27.53-55.06,0-99.1,42.87-99.1,101.46s44.44,101.47,99.1,101.47c40.51,0,65.29-16.91,76.3-27.53v45.23c-13,10.62-40.12,24.38-81.8,24.38C359.08,1102.13,297.73,1039.21,297.73,958.58Z"/><path class="cls-1" d="M760.62,1010.89h-164c2.75,31.86,29.1,53.88,62.92,53.88,29.11,0,48-14.94,56.64-32.64l39.72,4.32c-11,36.58-48.77,65.68-96.75,65.68-62.14,0-107.76-42.08-107.76-105.79,0-60.57,43.66-106.58,104.62-106.58C718.14,889.76,762.58,933,760.62,1010.89Zm-164-34.21H714.21C713,948,689.43,926.34,656,926.34,623.76,926.34,599,947.57,596.62,976.68Z"/><path class="cls-1" d="M992.65,978.64V1098.2H947V985.33c0-43.66-24.78-56.63-50.34-56.63-32.25,0-53.49,20.84-53.49,59.77V1098.2H797.58V894.09h38.54l6.29,34.21c12.59-24.38,35.4-38.54,68-38.54C953.71,889.76,992.65,916.11,992.65,978.64Z"/><path class="cls-1" d="M1144.45,894.09v35.39h-45.23V1098.2h-44.83V929.48h-31.86V894.09h31.86V834.7h44.83v59.39Z"/><path class="cls-1" d="M1220.34,924.76c11-21.63,31.07-35.79,66.08-31.07l-.4,38.94c-39.33-5.11-62.53,8.65-64.1,40.11l.39,125.46h-45.23V894.09h37Z"/><path class="cls-1" d="M1484.63,894.09h38.15V1098.2h-45.23v-41.69c-11.41,27.92-39.72,45.62-77.08,45.62-62.14,0-100.29-47.59-100.29-106.58,0-60.56,39.72-105.79,102.65-105.79,30.67,0,59,15,74.72,41.69V933ZM1477.16,996c0-37-27.14-65.29-65.29-65.29-38.54,0-66.07,27.14-66.07,65.29,0,38.54,27.53,65.67,66.07,65.67C1450,1061.62,1477.16,1033.31,1477.16,996Z"/><path class="cls-1" d="M1614.8,803.24v295h-45.23v-295Z"/><path class="cls-2" d="M1071.5,314.09l70.5-70.74a72.15,72.15,0,0,1,117.42,79.34A73,73,0,0,1,1220.79,361h0a71.92,71.92,0,0,1-27.81,5.44l-100.17-.18"/><path class="cls-2" d="M848.43,468.34,777.6,538.49a72.22,72.22,0,1,1-50.15-123.4l99.33.83"/><path class="cls-2" d="M1071,467.06l71,71.23A72.06,72.06,0,0,0,1220.91,554h0a72.15,72.15,0,0,0-28-138.72l-100.34.17"/><path class="cls-2" d="M826.11,366.24l-99.08.17a72.15,72.15,0,0,1-27.95-138.72A72.06,72.06,0,0,1,778,243.35l69.87,70.12"/><path class="cls-2" d="M882.63,278.68l-70.1-69.85a72.14,72.14,0,1,1,123.06-51V319.42h0"/><path class="cls-2" d="M1036.94,279.11l70.53-70.29A72.16,72.16,0,0,0,1029.14,91a72.06,72.06,0,0,0-44.72,66.88l.21,161.68h0"/><path class="cls-2" d="M984.54,462.07l-.13,161.71a72.14,72.14,0,1,0,123.06-51l-71.24-71"/><path class="cls-2" d="M935.59,462.14V623.79a72.1,72.1,0,0,1-99.74,66.77,72.15,72.15,0,0,1-23.32-117.75l70.8-70.54"/><path class="cls-3" d="M984.63,319.53h0a75.41,75.41,0,0,1-.1,142.56h0"/><path class="cls-3" d="M935.59,319.42a75.41,75.41,0,0,0,0,142.72h0"/></svg>