<svg id="Layer_1" data-name="Layer 1" xmlns="http://www.w3.org/2000/svg" viewBox="0 0 1060.64 1060.66"><defs><style>.cls-1{fill:#db553e;}</style></defs><path class="cls-1" d="M924.36,526.49h-.26l-165.17-.3a26.75,26.75,0,0,1,0-53.5h0l165.17.29h.17a91.85,91.85,0,0,0,35.4-6.92,93.43,93.43,0,0,0,49.4-49A92.16,92.16,0,0,0,859,315.7L742.81,432.36a26.75,26.75,0,0,1-37.9-37.77L821.14,277.94a145.73,145.73,0,0,1,237.14,160.32,147.4,147.4,0,0,1-78,77.23A145.31,145.31,0,0,1,924.36,526.49Z" transform="translate(-9.68 -9.67)"/><path class="cls-1" d="M155.72,844.84a145.9,145.9,0,0,1-55.17-281,147.68,147.68,0,0,1,56.23-10.63l163.78,1.38a26.75,26.75,0,0,1-.22,53.5h-.23l-163.78-1.37c-12.35-.6-24.44,2.14-35.64,6.68a92.34,92.34,0,1,0,99.74,151L337.21,648.8a26.75,26.75,0,0,1,37.65,38L258.08,802.48a145.23,145.23,0,0,1-102.36,42.36Z" transform="translate(-9.68 -9.67)"/><path class="cls-1" d="M924.22,844.93A145.29,145.29,0,0,1,821.15,802l-117-117.45A26.75,26.75,0,0,1,742,646.82l117,117.45a92.17,92.17,0,0,0,100.93,20A92.22,92.22,0,0,0,924.36,607h-.18l-165.45.29h-.05a26.76,26.76,0,0,1,0-53.51l165.46-.29h.28c49.42,0,93.53,23.56,121,64.65s32.51,91,13.55,136.81a144.29,144.29,0,0,1-78.49,78.75A146.88,146.88,0,0,1,924.22,844.93Z" transform="translate(-9.68 -9.67)"/><path class="cls-1" d="M155.63,526.49c-49.43,0-93.53-23.56-121-64.65S2.08,370.81,21,325A145.65,145.65,0,0,1,258.85,278l115.2,115.61a26.75,26.75,0,0,1-37.89,37.77L221,315.71a92.21,92.21,0,0,0-100.93-20A92.21,92.21,0,0,0,155.64,473h.18l163.37-.27h.05a26.75,26.75,0,0,1,0,53.5l-163.37.28Z" transform="translate(-9.68 -9.67)"/><path class="cls-1" d="M698.76,1070.33a144.25,144.25,0,0,1-80.6-24.91c-41.17-27.57-64.74-71.79-64.66-121.35l.21-266.61a26.75,26.75,0,0,1,18-25.27,97.59,97.59,0,0,0,.12-184.51,26.76,26.76,0,0,1-18-25.23l-.36-266.57A145.67,145.67,0,0,1,755,21c45.78,19,77.55,57.74,87.16,106.34s-5,96.53-40.06,131.49L685.74,374.74A26.75,26.75,0,1,1,648,336.84L764.29,221a92.22,92.22,0,0,0-100-150.66A92.2,92.2,0,0,0,607,155.8l.34,248.92a151.06,151.06,0,0,1-.14,270.5L607,924.14A92.2,92.2,0,1,0,764.27,859L646.82,742a26.75,26.75,0,1,1,37.76-37.89L802,821.12c35.09,35,49.71,82.93,40.09,131.52S800.73,1040,755,1059A146.79,146.79,0,0,1,698.76,1070.33Z" transform="translate(-9.68 -9.67)"/><path class="cls-1" d="M381,1070.16A146,146,0,0,1,325,1059c-45.78-19-77.55-57.73-87.16-106.33s5-96.54,40.07-131.49L394.69,704.81a26.75,26.75,0,0,1,37.77,37.89L315.72,859a92.23,92.23,0,0,0,100,150.66A92.21,92.21,0,0,0,473,924.18V675.36a151.09,151.09,0,0,1,0-270.87V155.85A92.2,92.2,0,1,0,315.73,221L431.32,336.14A26.75,26.75,0,1,1,393.55,374L278,258.85c-35.1-35-49.71-82.92-40.08-131.53S279.26,40,325,21,420.66,7,461.84,34.54s64.74,71.81,64.66,121.36V422.27a26.75,26.75,0,0,1-18.08,25.3,97.6,97.6,0,0,0,0,184.71,26.75,26.75,0,0,1,18.08,25.31V924.14a145.94,145.94,0,0,1-145.52,146Z" transform="translate(-9.68 -9.67)"/></svg>